<?xml version="1.0" encoding="UTF-8"?>
<svg id="outputsvg" class="img-fluid" width="722.89" height="721.57" cursor="move" version="1.1" viewBox="0 0 7228.9 7215.7" xmlns="http://www.w3.org/2000/svg">
 <g id="l7RNAyDlLvCtiJB9gt4DtK" transform="translate(-5.5401 -7)" fill="#6786c4">
  <path id="pIjRghfZc" d="m2985 7169c-430-77-852-236-1232-465-638-384-1141-955-1441-1634-321-728-393-1555-201-2325 347-1394 1494-2455 2909-2689 236-39 354-49 600-49s364 10 600 49c715 118 1365 444 1903 954 151 143 379 411 471 552l18 28h-36c-24 0-36-5-36-14 0-8-7-16-15-20-8-3-15-12-15-21 0-8-4-15-8-15-13 0-98-91-147-157-8-10-34 21-110 132l-100 145h-52c-47 0-53-3-58-23-4-12-15-27-27-32-18-9-32-30-58-85-4-8-16-17-26-19-27-5-154-131-161-159-3-15-21-31-51-44-24-12-47-29-49-38s-18-21-34-27-29-18-29-27-8-16-17-16c-20-1-73-44-73-60 0-5-7-10-14-10-8 0-66-35-128-78-144-97-147-99-183-117-16-9-91-47-165-85-304-158-683-274-1030-317-189-23-541-23-725 1-229 29-279 37-290 46-6 5-35 12-65 16s-59 10-65 14c-5 4-46 18-90 30-226 63-566 217-785 355-491 311-887 744-1146 1254-85 167-175 394-160 403 9 6 255-115 323-159 12-8 54-77 93-152 139-271 306-500 524-716 229-228 455-389 741-530 301-148 534-220 881-271 151-23 618-26 764-5 339 47 646 139 925 278 134 67 275 151 275 164 0 5 7 9 15 9s15 4 15 9 10 12 23 15c23 6 61 33 109 79 16 15 34 27 39 27s18 9 28 19c11 11 31 27 45 36 14 10 26 24 26 31 0 8 5 14 11 14 19 0 79 52 79 69 0 21 100 121 121 121s48 31 58 66c5 19 16 30 32 34 17 4 25 14 27 32 2 16 11 28 23 31 11 3 19 14 19 26 0 14 6 21 20 21 13 0 20 7 20 20 0 11 7 20 15 20s15 9 15 20 7 20 15 20c11 0 15 11 15 36 0 35-1 35-37 32l-38-3-97 140c-53 77-105 151-115 165-10 13-52 74-94 135-41 60-102 149-135 196-197 284-313 455-314 464 0 6 10 11 22 13 13 2 35 8 51 14 24 9 27 16 27 54 0 43-1 44-31 44-20 0-88-30-184-80-84-44-159-78-166-75-23 9-122 205-110 218 5 7 57 37 115 67 102 53 106 56 106 88v34l-46-4-46-3-194 278c-346 496-321 456-316 505l4 42h-34c-34 0-68-24-68-48 0-7-9-12-20-12s-20-7-20-15-8-15-19-15c-10 0-45-12-77-27-59-27-61-28-334-33-278-6-324-12-336-45-4-8-13-15-21-15-25 0-73-63-88-115-21-74-18-169 7-221 25-53 82-105 158-142l55-27 412 4 412 3 25-25c21-22 26-35 26-79 0-33-6-62-16-77l-17-23-406 4c-293 4-421 9-461 18-30 8-57 16-60 19-3 4-40 23-83 44-171 82-257 216-257 397 1 155 58 268 194 379 62 50 355 101 588 101 84 0 178 16 178 31 0 5 7 9 16 9s18 9 21 19c3 11 13 21 24 24 26 7 27 73 1 79-10 3-87 107-172 231-118 172-160 226-176 227-26 0-44 37-44 90 0 28-4 40-14 40-8 0-48 48-88 108-41 59-95 137-121 175-26 37-66 95-90 130-24 34-85 122-136 196s-117 168-146 210-92 132-140 201c-47 69-103 151-123 182-34 53-40 57-74 58-36 0-117-26-128-40-3-4-26-10-52-14-27-4-48-11-48-15 0-5-18-11-40-15-22-3-40-10-40-15s-21-14-46-20c-31-8-48-18-51-31s-14-20-28-20c-22 0-182-73-240-110-16-11-45-27-63-36-19-9-39-25-45-36-7-10-17-18-24-18s-13-4-13-10c0-5-7-10-16-10-17 0-144-89-144-101 0-4-8-10-17-13-10-3-38-24-63-47s-58-53-75-66c-16-14-34-35-40-46-6-12-21-27-33-33-32-16-72-55-72-71 0-7-5-13-11-13-26 0-209-224-323-395-86-129-233-425-290-586-119-334-166-629-166-1046v-213h31c22 0 263 122 802 406 542 287 774 404 784 398 8-5 37-53 66-107 52-98 52-99 31-115-11-9-345-188-742-397l-722-380v-70l318-163c174-89 472-242 662-340s553-285 808-416c290-150 462-244 462-253 0-22-99-210-113-216-7-2-561 279-1231 624-950 490-1227 629-1255 629-26 0-85-26-216-95-143-75-183-92-192-82-22 22-112 198-107 210 3 7 39 30 82 53 72 38 77 43 80 77 3 35 2 36-77 77-45 23-81 48-81 55 0 16 101 208 114 217 5 3 42-11 81-33 48-26 84-39 110-39h38l-9 58c-14 88-8 392 10 537 89 701 413 1368 897 1843 49 48 89 93 89 100 0 6 5 12 11 12 9 0 109 79 219 174 14 12 78 57 143 101 64 43 117 82 117 87 0 4 9 8 20 8 10 0 23 6 27 13s23 19 41 26c17 8 32 17 32 22s6 9 14 9c17 0 205 95 226 114 8 7 32 16 53 20 20 4 37 11 37 16 0 6 11 10 25 10s25 5 25 10c0 6 11 10 25 10s25 4 25 9 26 18 58 28c55 19 57 21 60 57 2 23-2 45-11 54-42 49-167 243-162 252 3 6 15 10 25 10s21 4 25 9c3 5 20 13 37 17 18 3 39 10 48 14 109 51 165 70 204 70 33 0 115 18 138 30 9 5 52 15 97 22 74 11 81 14 81 35 0 28 0 28-145 2zm-31-3141c14-19 16-75 16-410v-388h468c351 0 471-3 480-12 16-16 16-150 0-166-9-9-129-12-480-12h-468v-560h593c448 0 596-3 605-12 16-16 16-150 0-166-17-17-1369-17-1386 0s-17 1719 0 1736c7 7 41 12 84 12 64 0 75-3 88-22z"/>
  <path id="pvM8xOlLg" d="m4002 5611c-17-14-22-30-22-70v-51h34c28 0 36 5 46 30 13 32 15 33 73 30 36-1 37-1 37 33 0 42-10 47-89 47-42 0-64-5-79-19z"/>
  <path d="m4260 5507c0-38 27-57 80-57 27 0 30 3 30 33 0 38-27 57-80 57-27 0-30-3-30-33z"/>
  <path id="ptWIpQ7Re" d="m3933 5275c3-33 12-52 31-68 14-13 26-27 26-32 0-11 80-35 143-42l37-5v98l-82 39c-46 22-84 43-86 48-2 4-20 7-39 7h-36z"/>
  <path d="m4263 5116c-17-8-23-20-23-42 0-48 24-62 123-70l87-7v41c0 40-2 43-50 67-52 26-100 30-137 11z"/>
  <path id="pY3UTqNiY" d="m4607 4953c-4-3-7-20-7-37 0-26 8-36 44-58 35-23 55-28 105-28h61v33c0 30-5 35-65 65-61 30-123 41-138 25z"/>
  <path id="p1BiZBUnuz" d="m4920 4783c0-53 12-72 54-92 22-11 69-23 104-27l62-7v35c0 33-3 36-72 69-40 19-74 37-76 42-2 4-19 7-38 7-30 0-34-3-34-27z"/>
  <path d="m5250 4613c0-72 32-97 139-109l61-7v35c0 32-4 36-62 64-35 16-64 32-66 37-2 4-19 7-38 7-30 0-34-3-34-27z"/>
  <path id="pUCZasVOy" d="m5597 4443c-4-3-7-20-7-38 0-26 6-34 34-48 19-8 62-19 95-23l61-7v35c0 31-4 36-55 61-52 25-113 35-128 20z"/>
  <path d="m5927 4273c-4-3-7-21-7-38 0-39 22-51 109-61l61-7v35c0 30-5 36-45 56-44 21-105 29-118 15z"/>
  <path id="pel4b1BdX" d="m5600 3865c-30-11-35-17-38-49-3-35-2-36 32-36 19 0 51 8 71 17 30 14 35 22 35 50 0 31-2 33-32 32-18-1-49-7-68-14z"/>
  <path id="pDPQ8QuGd" d="m6353 3868c-17-8-23-20-23-45 0-36 12-40 79-27 28 6 31 10 31 45 0 37-1 39-32 38-18 0-43-5-55-11z"/>
  <path id="p16fAUCH6z" d="m5460 3780c0-5-12-10-27-10-40-1-63-22-63-59 0-29 2-31 35-31 37 0 85 18 85 32 0 4 9 8 20 8 16 0 20 7 20 35 0 33-2 35-35 35-19 0-35-4-35-10z"/>
  <path id="pIgYDuANj" d="m6183 3778c-17-8-23-20-23-45 0-36 12-40 79-27 28 6 31 10 31 45 0 37-1 39-32 38-18 0-43-5-55-11z"/>
  <path id="pgbD9rTLz" d="m6003 3683c-27-14-33-22-33-50 0-29 3-33 28-33 15 0 44 5 65 11 35 9 37 12 37 49 0 39-1 40-32 39-18 0-48-8-65-16z"/>
  <path id="p18BumT3uC" d="m5233 3673c-39-14-43-18-43-49 0-33 1-34 40-34 21 0 55 8 75 17 30 14 35 22 35 50 0 31-2 33-32 32-18-1-52-8-75-16z"/>
  <path id="pzBqiq7Bh" d="m5833 3593c-27-14-33-22-33-50 0-29 3-33 28-33 15 0 44 5 65 11 35 9 37 12 37 49 0 39-1 40-32 39-18 0-48-8-65-16z"/>
  <path d="m5013 3563c-27-14-33-22-33-50 0-32 1-33 40-33 21 0 55 8 75 17 30 14 35 22 35 50 0 32-1 33-42 32-24 0-58-8-75-16z"/>
  <path id="pUfvLazCr" d="m5653 3497c-38-18-43-25-43-54 0-33 0-33 50-33 71 0 100 21 100 71 0 37-1 39-32 38-18 0-52-10-75-22z"/>
  <path id="pfWQqEA6U" d="m5473 3403c-27-14-33-22-33-50 0-33 0-33 49-33 73 0 81 5 81 56 0 43-1 44-32 43-18 0-48-8-65-16z"/>
  <path id="p7N9O2tON" d="m5293 3307c-38-18-43-25-43-54 0-33 0-33 50-33 27 0 61 5 75 12 21 9 25 18 25 55 0 42-1 43-32 42-18 0-52-10-75-22z"/>
  <path id="pM5v4P6lA" d="m6600 1644c0-45 22-43 51 4l21 32h-36c-35 0-36-1-36-36z"/>
 </g>
 <g id="l22VeIwelnZYLsX2uFFZU1O" transform="translate(-5.5401 -7)" fill="#6786c4">
  <path id="p6stevpSH" d="m3450 7219c-164-8-344-27-348-38-1-4-18-5-37-3s-35 0-35-6c0-5-11-7-25-4-14 2-25 0-25-6s-9-8-20-5c-13 4-26-1-35-13-13-16-16-17-24-4-9 13-12 13-23-1-18-23-69-34-79-17-5 8-9 9-9 2s-11-9-25-6c-15 2-25 0-25-7s-4-9-10-6c-5 3-10 1-10-5s-10-8-25-4c-16 4-25 2-25-5 0-6-17-19-37-27-21-9-46-20-55-25-10-5-23-9-29-9s-25-6-42-14c-18-8-49-20-69-28l-37-13 69-100c37-55 87-126 109-158 23-32 39-61 37-66-3-4-32-16-65-26s-58-22-55-26c3-5-9-9-26-9-18 0-29-4-25-10s-7-10-25-10c-17 0-29-4-26-9 4-5-8-12-26-16-54-11-70-16-63-23 3-3-5-12-17-19-22-12-21-12 16-13 43 0 106 19 106 32 0 4 9 8 20 8s20 5 20 10c0 6 13 10 29 10s31 3 33 8c4 10 312 107 418 131 668 152 1348 82 1981-204 354-160 656-373 941-662 190-192 303-335 449-568 106-169 284-544 266-561-3-3-85 36-183 87l-177 94-59 110c-139 256-299 469-507 675-448 444-970 701-1616 797-169 24-627 25-804 0-234-33-428-84-656-172-52-20-95-41-95-46s-9-9-20-9c-32 0-220-98-220-115 0-10-10-15-30-15-16 0-33-6-37-14s-17-15-28-17c-12-3-21-14-23-27-3-17-10-22-33-22-39 0-79-27-79-54 0-15 7-21 25-22 15-1 25 3 25 12 0 8 6 11 15 8 9-4 15 0 15 9s14 25 30 37c21 15 30 17 30 8 0-7 11 1 25 17 13 17 24 24 25 18 0-20 17-15 23 6 5 21 47 49 47 31 0-5 5-10 10-10 6 0 10 7 10 16 0 8 5 12 10 9 6-3 10-1 10 5s5 8 10 5c6-3 10-1 10 5s5 8 10 5c6-3 10-1 10 5s5 8 10 5c6-3 10-1 10 5s5 8 10 5c6-3 10-1 10 5s5 8 10 5c6-3 10-1 10 5s5 8 10 5c15-10 50 5 50 20 0 8 9 19 20 25 14 7 20 7 20 0 0-5 7-10 15-10s15 7 15 16c0 11 5 14 17 10 11-5 23 1 35 16 10 13 18 17 18 11 0-22 30-14 40 10 5 12 9 16 9 9 1-10 5-10 16 2 11 10 26 13 45 9 23-4 30-2 30 10 0 17 40 31 41 14 0-7 4-3 9 8s9 14 9 8c1-20 41-16 41 3 0 9 19-12 43-47 37-56 102-150 272-394 60-86 221-320 270-390 23-33 63-91 90-130 27-38 82-118 123-177 40-60 80-108 88-108s14-7 14-15 7-15 15-15c11 0 15 11 15 38 0 21 7 48 16 61 16 23 20 23 133 18 135-5 173-17 273-84 51-34 84-67 120-118 61-85 80-128 102-224 19-83 11-174-24-277-31-89-127-212-178-228-14-5-22-16-22-29 0-18 6-22 30-23 23-1 30 3 30 18s5 18 20 13 20-2 20 13c0 10 10 27 23 38l22 19-18-22c-22-26-22-26 68-156 287-418 469-671 478-668 43 13 46 9 7-13s-41-25-20-25c55-1 169 48 212 91 10 10 30 20 45 23 39 8 152 67 158 82 2 7 12 13 21 13 22 0 130 55 156 80 12 11 30 20 39 20 20 0 130 58 140 73 4 5 27 17 52 26 24 9 160 77 301 151l256 135v36c0 36-1 37-89 78-49 22-101 41-116 41-18 0-29 6-32 19-6 22-235 141-271 141-30 0-62 17-62 34 0 16-237 136-268 136-30 0-62 17-62 34 0 19-218 126-255 126-34 0-75 24-75 44s-195 116-236 116c-38 0-94 32-94 54 0 6-49 38-109 69-80 42-119 57-149 57-41 0-72 19-72 44 0 20-175 106-215 106-45 0-103 28-111 54-4 11-16 28-28 37l-21 17 43 84c23 46 42 89 42 95 0 7 8 22 17 32 16 19 20 18 172-61 178-92 897-463 1416-731 193-99 471-242 618-319 203-104 278-138 306-138 27 0 82 24 206 89 93 49 174 87 180 85 12-5 115-195 115-212 0-6-36-30-80-54-73-39-80-46-80-74 0-27 6-34 42-50 22-10 61-31 85-46l43-28-49-98c-68-135-68-135-152-89-38 20-82 37-98 37h-30l6-147c27-678-219-1428-653-1991-35-45-64-88-64-96s-9-16-20-19c-15-4-20-14-20-37 0-28 2-31 15-20 11 9 15 9 15 1 0-22 17-2 23 28 5 21 12 29 29 29 19 0 45-32 136-163 110-157 114-163 132-145 10 10 22 24 26 32 11 19 93 115 118 139 11 11 26 19 34 19 9 0 12 6 8 16-4 11 1 18 15 21 12 3 18 11 15 19s0 14 7 14c16 0 59 68 52 80-4 6 0 10 7 10 32 0 248 403 336 625 282 713 333 1496 145 2230-330 1291-1339 2291-2638 2614-323 80-691 116-1035 100zm620-1629c-8-5-22-10-30-10-13 0-13 1 0 10 8 5 22 10 30 10 13 0 13-1 0-10zm-36-35c-4-8-10-12-15-9-14 8-10 24 6 24 9 0 12-6 9-15zm26-320c62-32 64-34 40-43-14-5-27-6-30-2s-21 15-40 25c-40 21-61 40-53 49 9 9 12 8 83-29zm310-160c49-25 65-45 35-45-33 0-111 51-98 64 9 9 8 9 63-19zm334-172c53-26 64-43 28-43-22 0-104 55-95 63 9 9 6 10 67-20zm321-165c43-21 58-38 33-38-22 0-98 42-92 51 7 12 7 12 59-13zm320-165c33-16 46-33 25-33-19 0-79 34-74 42 7 11 8 11 49-9zm330-170c33-16 46-33 25-33-19 0-79 34-74 42 7 11 8 11 49-9zm320-165c25-11 34-28 15-28s-59 23-54 31c7 11 8 11 39-3zm-555-513c-33-19-49-19-24 0 10 8 26 14 34 14 9 0 4-6-10-14zm-180-95c-8-5-22-10-30-10-13 0-13 1 0 10 8 5 22 10 30 10 13 0 13-1 0-10zm-190-100c-19-11-42-19-50-19s1 8 20 19 42 19 50 19-1-8-20-19z"/>
  <path id="pUkedlt1v" d="m2085 6410c-16-4-25-8-20-9 15-2-37-30-57-31-10 0-17-5-15-12 1-7-11-15-28-19-16-4-25-7-20-8 6-1 1-8-9-16-18-14-17-15 22-15 31 0 42 4 42 15 0 8 9 15 20 15 24 0 70 21 70 32 0 4 7 8 15 8 9 0 15 9 15 25 0 14-1 24-2 24-2-1-16-5-33-9z"/>
  <path id="pq87G3J6w" d="m1715 6170c-11-5-16-9-11-9 6-1 1-8-10-16-18-13-17-14 19-15 33 0 37 3 37 25 0 27-4 28-35 15z"/>
  <path d="m1480 5973c-14-7-25-17-25-23 0-7-7-17-15-23-8-7-21-20-29-29-12-16-11-18 18-18 24 0 31 4 31 20 0 13 7 20 20 20 23 0 33 18 28 47-3 17-6 17-28 6z"/>
  <path id="pS56Z31Nu" d="m1850 5856c0-19 5-24 20-23 11 1 20 7 20 14 0 6 8 17 18 22 14 8 10 10-20 11-34 0-38-3-38-24z"/>
  <path id="p1B19XoBel" d="m1323 5810c-15-16-34-30-42-30s-11-3-8-7c4-3 2-12-4-20-9-10-5-13 20-13 24 0 31 4 31 20 0 13 7 20 20 20 16 0 20 7 20 30 0 17-2 30-4 30s-17-13-33-30z"/>
  <path id="pO0SzXbMn" d="m1740 5770c0-15-7-20-25-20-16 0-25-6-25-15 0-8-6-15-13-15-23 0-57-45-57-74 0-24 2-27 15-16 8 7 15 9 15 4 0-4 11 3 25 16s25 29 25 35c0 11 60 61 70 58 3-1 10 9 17 23 10 22 9 24-18 24-22 0-29-5-29-20z"/>
  <path id="p10skWhYNM" d="m1537 5590c-9-11-17-34-17-51v-30l23 24c12 14 25 24 30 23 4 0 14 11 22 27 13 26 13 27-13 27-15 0-35-9-45-20z"/>
  <path id="pjJwcvIfD" d="m3744 4995c3-8-2-19-11-24-15-8-15-10-1-25 19-18 38-21 38-6 0 6 8 10 18 10 11-1 72-82 177-235 101-148 165-233 173-230 7 3 10 0 7-5-3-6-15-10-25-10s-22-4-25-10c-3-5-1-10 5-10s8-4 5-10c-3-5-18-10-33-10-19 0-23-3-13-9 22-14-78-31-182-31-105 0-137-6-137-26 0-11 25-14 124-14 140 0 186 6 186 26 0 9 11 14 30 14 20 0 30 5 30 15 0 8 8 15 19 15 25 0 87 92 102 153 6 26 9 83 7 126-5 91-31 144-99 205-68 62-109 76-231 76-81 0-110 4-122 15-19 20-50 20-42 0z"/>
  <path id="psUxnOUuc" d="m3568 4373c-10-3-18-11-18-19 0-10 14-14 55-14 46 0 55 3 55 18 0 13-9 17-38 18-20 0-45-1-54-3z"/>
  <path id="pHv7b0KRQ" d="m3345 4315c-22-7-36-13-32-14s-5-12-20-26l-28-24 38-1c20 0 37 4 37 8 0 5 18 15 40 22 27 9 40 19 40 32 0 21-18 22-75 3z"/>
  <path id="pJS3NNflg" d="m4033 4173c-25-3-33-9-33-24 0-10 7-19 15-19s15-4 15-10c0-17 28-11 39 8 6 9 11 11 11 5 0-18 30-16 30 1 0 8 7 16 15 20 8 3 15 10 15 16 0 10-42 11-107 3z"/>
  <path id="pSO2TW4qM" d="m3537 4153c-15-15-7-35 12-30 14 3 18 1 14-9-3-8 1-14 11-14 9 0 19 7 22 15 4 8 12 15 20 15s14 7 14 15c0 11-11 15-43 15-24 0-47-3-50-7z"/>
  <path id="pXTwIv5Tc" d="m3438 4112c-7-10-21-21-30-25-13-4-18-17-18-44v-37l29 32c19 20 35 30 45 26 11-4 16-1 16 10 0 9 9 21 20 28 29 19 24 28-14 28-22 0-40-7-48-18z"/>
  <path id="pe4VeupnQ" d="m3120 4010c0-11-6-18-12-16-7 1-10 1-5-1 4-3 7-11 7-19s7-14 15-14c10 0 15 11 15 35 0 19-4 35-10 35-5 0-10-9-10-20z"/>
  <path d="m3330 3885c0-67 2-75 19-75 16 0 18 9 19 75 1 68-1 75-19 75-17 0-19-8-19-75z"/>
  <path id="p1BzGYKFqh" d="m6335 3855c-33-17-105-56-160-85s-138-73-185-98-128-67-180-94c-52-26-102-57-111-69-8-11-34-25-58-30-54-12-131-56-131-75 0-9-11-14-28-14-36 0-132-47-140-69s-22-31-51-31c-33 0-111-39-119-59-8-22-22-31-50-31-37 0-82-28-82-51 0-17 3-18 20-9 16 8 18 8 14-4-5-13 59-109 358-541 27-38 83-119 124-180 42-60 112-162 156-225s98-143 121-177 49-64 57-66c8-3 5-5-8-6-18-1-22-5-17-20 4-15 0-20-17-23-15-2-23-10-23-23 0-11-8-21-18-23-9-2-18-9-18-15-1-7-2-19-3-27 0-8-10-16-21-18-27-5-35-14-41-45-4-23-1-27 19-27 27 0 57 28 57 53 0 9 6 17 14 17 16 0 76 71 76 89 0 6 4 11 8 11 25 0 196 268 288 451 187 374 278 744 291 1189 3 113 3 240-1 283l-8 77-36-1c-21-1-64-16-97-34zm-605-374c0-14-50-42-62-35-6 4 3 14 23 25 41 22 39 21 39 10zm-190-105c0-16-27-29-42-20-6 4-1 12 13 20 30 17 29 17 29 0zm-170-89c0-17-47-40-62-31-6 4 4 15 23 25 42 22 39 22 39 6zm-170-90c0-17-47-40-62-31-6 4 4 15 23 25 42 22 39 22 39 6z"/>
  <path id="p1C72DjEgg" d="m3106 3835c-4-14-11-25-16-25-6 0-10-4-10-10 0-5 7-10 15-10s16-4 16-10c1-5 3-14 4-20 1-5 3-17 4-25 0-8 8-15 17-15 14 0 16 8 10 53-3 28-6 60-6 70 0 26-27 20-34-8z"/>
  <path d="m3610 3608c0-14 8-18 35-18 24 0 35 5 35 15 0 8-6 15-12 16-7 0-23 2-35 3-17 2-23-3-23-16z"/>
  <path id="p96fKf4Nb" d="m3758 3623c-10-2-18-11-18-19 0-12 54-14 355-14 221 0 355 4 355 10 0 26-50 30-357 29-175-1-326-3-335-6z"/>
  <path id="pdnj8Kdxc" d="m3420 3431c0-6 7-11 15-11s15-7 15-16c0-12 7-15 25-12 14 3 25 1 25-5 0-5 9-7 20-4s20 1 20-5 14-8 35-4c22 4 35 3 35-4 0-5 9-10 20-10s20 5 20 11 7 9 15 5c10-3 15 1 15 13 0 14-15 20-77 31-116 20-183 24-183 11z"/>
  <path id="pxrUHZhva" d="m634 2663c3-4-2-12-13-17-18-10-18-14-6-43 15-36 35-44 35-14 0 11 7 26 15 35 24 24 19 46-12 46-14 0-23-3-19-7z"/>
  <path d="m5697 1703c-5-7-16-13-25-13-10 0-47-29-82-65s-58-65-51-65c11 0 11-3 1-15-11-13-8-15 17-15 22 0 43 15 92 64 52 53 62 68 59 92-2 19-6 25-11 17z"/>
  <path d="m5932 1507c-12-13-22-29-22-35 0-7-7-12-15-12-10 0-15-10-15-31 0-29 2-30 18-18 9 8 22 21 29 29 6 8 15 12 19 7 10-10 44 22 44 43 0 9 5 21 12 28 9 9 5 12-18 12-19 0-39-9-52-23z"/>
  <path id="pTGOM0LQN" d="m5480 1503c-14-7-25-18-25-24s-15-19-32-29c-18-9-30-20-26-23 3-4-7-12-22-19-16-7-41-25-56-40-15-16-35-28-45-28-9 0-14-3-11-7 9-9-43-43-66-43-10 0-15-4-12-10 3-5 1-10-4-10-6 0-20-9-31-20l-20-20h40c22 0 40 4 40 9s11 12 25 15c16 4 25 13 25 26 0 15 7 20 25 20 20 0 25 5 25 24 0 21 5 25 38 28 30 2 38 7 40 26 3 16 10 22 28 22 19 0 24 5 24 25 0 21 5 25 30 25 32 0 44 15 38 47-3 17-6 17-28 6z"/>
  <path d="m5731 1305c-17-19-35-35-41-35-5 0-10-6-10-14 0-7-9-16-20-19-12-3-20-14-20-25 0-15-8-22-27-24-22-2-29-9-31-29-2-21 1-25 19-24 13 1 26 11 30 23 8 20 20 27 42 23 4-1 11 10 16 23 8 19 35 41 44 33 8-7 51 36 66 67l19 36h-28c-19 0-37-11-59-35z"/>
  <path id="ph1Q3L6Kk" d="m5497 1113c-4-3-7-16-7-28 0-16 6-21 22-20 12 1 24 8 27 16 2 8 11 19 20 26 14 10 10 12-20 13-20 0-39-3-42-7z"/>
  <path id="pPiJ0yjfm" d="m5280 960c0-5-7-10-15-10s-15-7-15-15-9-15-19-15c-30 0-51-11-51-26 0-8-10-14-25-14-20 0-25-5-25-24 0-28 27-30 50-4 8 9 24 18 35 20s26 11 34 21c7 10 18 17 25 15 6-2 27 11 46 29l35 33h-37c-21 0-38-4-38-10z"/>
  <path id="pDmK3YTtn" d="m3440 789c0-16 8-19 55-19 42 0 55 3 55 15 0 8-6 15-12 16-7 0-32 2-55 3-36 3-43 1-43-15z"/>
  <path id="pDRXLpHPm" d="m3698 802c-10-2-18-10-18-18 0-10 13-14 50-14 38 0 50 4 50 15 0 8-6 15-12 16-7 0-22 2-33 3s-28 0-37-2z"/>
  <path id="pq82Qxmtn" d="m4868 747c-19-7-28-18-28-34 0-20 3-21 26-13 14 6 30 8 35 4 5-3 9 0 9 7s3 10 6 7c5-6 44 27 44 37 0 9-64 3-92-8z"/>
  <path d="m4337 570c-59-15-159-36-222-46-99-16-115-21-115-37 0-13 5-17 15-13 8 3 15 0 15-7 0-8 3-8 9 2 6 9 20 12 40 9 17-2 31 0 31 5s15 7 35 4c21-4 35-2 35 5 0 6 11 8 25 6 14-3 25-1 25 5 0 5 11 7 25 5 14-3 25-1 25 5 0 5 9 7 20 4s20-1 20 5 11 8 25 6c14-3 25-1 25 5 0 5 9 7 20 4s20-1 20 5 9 8 20 5 20-1 20 3c0 5 14 11 30 15 17 4 30 13 30 21 0 20-46 16-173-16z"/>
  <path id="pMVuRwCKU" d="m2790 575c0-3 9-14 20-25 25-25 70-18 70 11 0 16-8 19-45 19-25 0-45-2-45-5z"/>
  <path id="pM3y3mzJT" d="m2920 545c0-15 44-46 57-40 9 3 19 1 23-5 11-17 60-1 60 20 0 12-11 19-37 24-46 7-103 8-103 1z"/>
  <path d="m3090 505c0-8 7-15 15-15s15-5 15-10c0-7 13-8 35-4 23 4 35 2 35-5 0-6 7-11 15-11s15 4 15 9c0 4 11 6 25 3 14-2 25-8 25-13s7-9 15-9 15 5 15 11 7 9 15 5c10-3 15 1 15 12 0 15-15 20-97 30-126 16-143 15-143-3z"/>
  <path id="pTF6Y8iCp" d="m3920 479c0-12 4-18 11-13 6 3 15 0 20-7 6-10 9-11 9-1 0 6 7 12 15 12s15 7 15 15c0 10-11 15-35 15-29 0-35-4-35-21z"/>
  <path d="m3350 475c0-8 7-15 15-15s15-4 15-10c0-5 9-10 20-10s20 5 20 10c0 6 7 10 15 10s15 7 15 15c0 11-12 15-50 15s-50-4-50-15z"/>
  <path d="m3770 469c0-18 4-21 29-16 19 4 32 2 35-6 5-9 7-9 12 1 3 6 12 12 20 12s14 7 14 15c0 12-13 15-55 15-49 0-55-2-55-21z"/>
 </g>
 <g id="lWP3CsvEi5nHHPPMuWQe3d" transform="translate(-5.5401 -7)" fill="#fff">
  <path id="pf3h3C05p" d="m3360 6789c-464-40-894-172-1285-394-888-504-1473-1373-1600-2375-20-158-31-500-17-558 9-40 9-42-9-37-24 8-25-16-1-37 30-27 200-108 226-108 41 0 156 68 156 92 0 13-5 18-14 15-12-5-14 24-15 171-4 500 86 897 299 1327 141 284 292 496 520 726 235 237 463 401 765 549 283 140 555 223 866 267 175 24 577 24 744-1 191-28 349-64 509-117 431-142 782-357 1107-679 208-206 368-419 507-675l59-110 184-98c197-104 226-112 241-65 12 34-32 147-135 355-222 450-554 844-972 1153-598 443-1384 664-2135 599z"/>
  <path id="powWklKsU" d="m3756 5178c-11-16-16-46-16-103 0-120 5-125 138-125 83 0 116-5 148-19 55-25 119-84 152-140 23-39 27-58 27-121s-5-84-29-133c-17-32-45-72-63-88-64-56-89-61-333-70-317-11-438-45-545-153-88-88-127-197-126-351 1-210 81-338 264-425 144-68 179-72 648-77l417-5 16 23c12 17 16 46 16 105 0 134 40 123-455 126l-420 3-55 27c-112 55-180 140-180 226 0 64 29 132 77 178 69 67 102 74 357 74 251 0 322 11 417 61 68 37 156 126 187 191 29 59 50 145 58 233 7 76-11 187-43 263-25 61-89 147-148 199-103 93-197 123-377 123-109 0-118-1-132-22z"/>
  <path id="p2qyvxXWj" d="m4140 5197c9-8 110-58 110-53 0 6-65 43-91 51-13 4-22 5-19 2z"/>
  <path d="m2752 4068c-17-17-17-1779 0-1796s1429-17 1446 0c16 16 16 210 0 226-9 9-157 12-605 12h-593v500h468c351 0 471 3 480 12 16 16 16 210 0 226-9 9-129 12-480 12h-468v388c0 335-2 391-16 410-14 20-23 22-118 22-66 0-106-4-114-12z"/>
  <path id="p15ga17hZJ" d="m6478 3933c-53-29-68-42-68-60 0-15 5-21 14-17 21 8 30-118 23-321-22-626-228-1186-615-1672-412-517-985-868-1636-1002-231-48-313-56-576-55-180 0-276 5-364 18-346 51-580 123-881 271-286 141-512 302-741 530-218 216-377 434-523 712l-76 148-165 88c-91 48-176 90-188 94-17 4-31-1-49-19l-24-25 60-154c166-422 399-775 723-1096 262-260 490-423 828-592 326-163 640-258 1015-307 163-22 581-25 735-6 415 52 746 152 1103 334 179 91 373 216 527 338 124 98 407 379 504 500 89 112 238 338 313 475 257 469 394 1030 381 1563-3 145-2 150 16 140 16-9 18-7 13 7-4 9-7 21-7 26 0 15-217 119-247 119-16 0-58-17-95-37z"/>
  <path id="p1I0r6Ruc" d="m2722 2245c9-10 21-16 28-13 7 2-1 10-16 17-27 12-28 11-12-4z"/>
 </g>
 <g id="l65ncX4MEBKpZNQqitlRLUp" transform="translate(-5.5401 -7)" fill="#434343">
  <path id="p3hJOeYon" d="m4065 5589c-11-6-47-61-79-123-51-99-57-117-49-142 10-31 37-45 948-514 160-82 373-192 475-244 102-53 332-171 512-264 180-92 328-169 328-172s-325-176-722-385c-396-209-734-388-749-397-45-27-39-70 23-186 55-103 71-121 103-122 11 0 403 202 870 449l850 449 183-94c101-52 194-94 206-94 32 0 57 32 110 137 59 120 60 145 3 181-24 15-63 36-86 46l-42 19 81 44c109 60 110 66 35 210-82 157-72 155-283 46-92-47-171-89-176-94-6-5-15-9-22-9s-137 65-291 144c-796 410-1855 956-2057 1060-136 69-139 70-171 55z"/>
  <path id="p2xbg0acn" d="m1625 3814c-401-212-780-411-841-443l-112-58-183 93c-171 88-218 104-245 86-18-12-124-225-124-248 0-31 21-49 103-91 81-40 82-37-29-95-93-48-97-66-38-182 67-131 79-146 117-146 21 0 95 34 212 95 99 52 183 95 186 95s556-283 1228-630c788-406 1232-630 1251-630 39 0 53 17 111 131 51 103 59 138 35 162-8 8-219 119-468 248-249 128-608 313-798 411s-488 251-662 340c-175 90-318 165-318 168s325 176 722 385 732 388 745 398c34 27 29 57-33 173-55 102-74 124-111 124-10 0-346-174-748-386z"/>
 </g>
</svg>
